<svg width="677" height="488" viewBox="0 0 677 488" fill="none" xmlns="http://www.w3.org/2000/svg">
<g clip-path="url(#clip0_89_52)">
<path opacity="0.1" d="M7.31238 265.303C18.0249 311.086 40.7027 350.662 76.5366 369.87C151.024 409.736 319 389.171 444.36 365.551C507.707 353.656 565.208 320.789 607.603 272.244L7.31238 265.303Z" fill="#82ACAA"/>
<path opacity="0.1" d="M664.72 49.8002H595.934C594.358 49.8002 592.846 49.1742 591.732 48.0598C590.618 46.9455 589.992 45.4341 589.992 43.8582C589.992 42.2823 590.618 40.771 591.732 39.6566C592.846 38.5423 594.358 37.9163 595.934 37.9163H607.825C606.281 37.8665 604.818 37.2184 603.743 36.1089C602.669 34.9994 602.068 33.5156 602.068 31.9712C602.068 30.4268 602.669 28.943 603.743 27.8335C604.818 26.7241 606.281 26.0759 607.825 26.0262H599.334C597.79 25.9764 596.327 25.3283 595.252 24.2188C594.178 23.1093 593.577 21.6255 593.577 20.0811C593.577 18.5368 594.178 17.0529 595.252 15.9434C596.327 14.834 597.79 14.1858 599.334 14.1361H635.236C627.269 10.4339 617.958 7.79921 607.227 6.41708C509.333 -6.15175 474.381 2.16576 462.052 10.7363C446.841 21.2874 429.871 29.0496 411.735 32.7888C351.335 45.2465 238.379 60.2403 135.999 27.9883C85.114 11.9456 47.2993 39.0454 24.6277 84.3105H676.661C675.809 71.1555 673.261 59.0124 668.583 48.3749C667.508 49.2985 666.137 49.8044 664.72 49.8002Z" fill="#82ACAA"/>
<path opacity="0.1" d="M1.47482 169.744C-1.1671 196.37 -0.270705 223.228 4.14062 249.618L608.066 271.708C624.879 252.369 638.994 230.843 650.027 207.716L1.47482 169.744ZM240.335 226.72H228.444C230.02 226.72 231.531 227.346 232.646 228.461C233.76 229.575 234.386 231.086 234.386 232.662C234.386 234.238 233.76 235.749 232.646 236.864C231.531 237.978 230.02 238.604 228.444 238.604H159.657C158.081 238.604 156.57 237.978 155.456 236.864C154.341 235.749 153.715 234.238 153.715 232.662C153.715 231.086 154.341 229.575 155.456 228.461C156.57 227.346 158.081 226.72 159.657 226.72H171.549C170.005 226.67 168.541 226.022 167.467 224.913C166.392 223.803 165.792 222.319 165.792 220.775C165.792 219.231 166.392 217.747 167.467 216.637C168.541 215.528 170.005 214.88 171.549 214.83H163.058C161.514 214.78 160.05 214.132 158.976 213.023C157.901 211.913 157.301 210.429 157.301 208.885C157.301 207.341 157.901 205.857 158.976 204.747C160.05 203.638 161.514 202.99 163.058 202.94H231.844C233.387 202.99 234.851 203.638 235.926 204.747C237 205.857 237.601 207.341 237.601 208.885C237.601 210.429 237 211.913 235.926 213.023C234.851 214.132 233.387 214.78 231.844 214.83H240.335C241.878 214.88 243.342 215.528 244.417 216.637C245.491 217.747 246.092 219.231 246.092 220.775C246.092 222.319 245.491 223.803 244.417 224.913C243.342 226.022 241.878 226.67 240.335 226.72Z" fill="#82ACAA"/>
<path opacity="0.1" d="M676.692 84.7054L17.3524 100.748C9.33032 121.363 4.04193 144.656 1.57361 168.825H665.14C669.471 154.634 672.675 140.124 674.723 125.429C676.698 111.231 677.488 97.4963 676.692 84.7054ZM135.431 137.251H123.54C124.32 137.251 125.093 137.405 125.814 137.704C126.535 138.002 127.19 138.44 127.742 138.992C128.294 139.543 128.731 140.199 129.03 140.919C129.329 141.64 129.482 142.413 129.482 143.193C129.482 143.974 129.329 144.746 129.03 145.467C128.731 146.188 128.294 146.843 127.742 147.395C127.19 147.947 126.535 148.384 125.814 148.683C125.093 148.982 124.32 149.135 123.54 149.135H54.7537C53.1776 149.135 51.6661 148.509 50.5517 147.395C49.4373 146.281 48.8112 144.769 48.8112 143.193C48.8112 141.617 49.4373 140.106 50.5517 138.992C51.6661 137.877 53.1776 137.251 54.7537 137.251H66.6448C65.1011 137.202 63.6373 136.553 62.5629 135.444C61.4885 134.335 60.8877 132.851 60.8877 131.306C60.8877 129.762 61.4885 128.278 62.5629 127.169C63.6373 126.059 65.1011 125.411 66.6448 125.361H58.1538C56.6101 125.312 55.1462 124.663 54.0718 123.554C52.9974 122.444 52.3967 120.961 52.3967 119.416C52.3967 117.872 52.9974 116.388 54.0718 115.279C55.1462 114.169 56.6101 113.521 58.1538 113.471H126.94C128.484 113.521 129.947 114.169 131.022 115.279C132.096 116.388 132.697 117.872 132.697 119.416C132.697 120.961 132.096 122.444 131.022 123.554C129.947 124.663 128.484 125.312 126.94 125.361H135.431C136.975 125.411 138.438 126.059 139.513 127.169C140.587 128.278 141.188 129.762 141.188 131.306C141.188 132.851 140.587 134.335 139.513 135.444C138.438 136.553 136.975 137.202 135.431 137.251Z" fill="#82ACAA"/>
<path opacity="0.1" d="M347.799 488C466.682 488 563.056 482.784 563.056 476.351C563.056 469.917 466.682 464.701 347.799 464.701C228.917 464.701 132.543 469.917 132.543 476.351C132.543 482.784 228.917 488 347.799 488Z" fill="#82ACAA"/>
<path d="M526.5 390.689C526.5 390.689 529.888 395.125 524.933 401.795C519.977 408.465 515.892 414.136 517.528 418.313C517.528 418.313 525 405.88 531.103 405.707C537.206 405.534 533.189 398.167 526.5 390.689Z" fill="#82ACAA"/>
<path opacity="0.1" d="M526.5 390.689C526.792 391.118 527.025 391.585 527.191 392.077C533.127 399.056 536.287 405.565 530.585 405.726C525.266 405.88 518.891 415.382 517.367 417.782C517.416 417.969 517.475 418.152 517.546 418.332C517.546 418.332 525.019 405.898 531.122 405.726C537.225 405.553 533.189 398.167 526.5 390.689Z" fill="black"/>
<path d="M532.8 396.341C532.8 397.902 532.628 399.167 532.412 399.167C532.196 399.167 532.017 397.902 532.017 396.341C532.017 394.78 532.239 395.514 532.455 395.514C532.671 395.514 532.8 394.78 532.8 396.341Z" fill="#FFD037"/>
<path d="M534.96 398.204C533.59 398.951 532.399 399.401 532.294 399.21C532.19 399.019 533.22 398.26 534.59 397.513C535.96 396.766 535.417 397.309 535.522 397.513C535.627 397.717 536.33 397.458 534.96 398.204Z" fill="#FFD037"/>
<path d="M508.592 390.689C508.592 390.689 505.205 395.125 510.16 401.795C515.115 408.465 519.194 414.136 517.565 418.313C517.565 418.313 510.086 405.88 503.989 405.707C497.892 405.534 501.897 398.167 508.592 390.689Z" fill="#82ACAA"/>
<path opacity="0.1" d="M508.592 390.689C508.297 391.116 508.064 391.584 507.901 392.077C501.965 399.056 498.799 405.565 504.507 405.726C509.82 405.88 516.232 415.382 517.725 417.782C517.676 417.968 517.614 418.146 517.546 418.332C517.546 418.332 510.067 405.898 503.97 405.726C497.874 405.553 501.897 398.167 508.592 390.689Z" fill="black"/>
<path d="M502.292 396.341C502.292 397.902 502.465 399.167 502.681 399.167C502.897 399.167 503.076 397.902 503.076 396.341C503.076 394.78 502.854 395.514 502.638 395.514C502.422 395.514 502.292 394.78 502.292 396.341Z" fill="#FFD037"/>
<path d="M500.126 398.204C501.496 398.951 502.693 399.401 502.798 399.21C502.903 399.019 501.872 398.26 500.502 397.513C499.132 396.766 499.675 397.309 499.571 397.513C499.466 397.717 498.756 397.458 500.126 398.204Z" fill="#FFD037"/>
<path d="M503.372 417.752C503.372 417.752 512.85 417.455 515.713 415.425C518.577 413.395 530.295 410.958 531.005 414.191C531.714 417.425 545.247 430.413 534.547 430.499C523.847 430.586 509.685 428.833 506.834 427.1C503.983 425.366 503.372 417.752 503.372 417.752Z" fill="#A8A8A8"/>
<path opacity="0.2" d="M534.732 429.395C524.032 429.481 509.87 427.729 507.019 425.995C504.847 424.668 503.983 419.923 503.693 417.739H503.378C503.378 417.739 503.995 425.378 506.827 427.118C509.66 428.858 523.84 430.604 534.541 430.518C537.626 430.518 538.7 429.395 538.638 427.766C538.206 428.765 537.027 429.376 534.732 429.395Z" fill="black"/>
<path d="M166.137 421.219C167.269 420.295 168.096 419.049 168.506 417.647C168.809 416.234 168.204 414.562 166.853 414.012C165.335 413.432 163.712 414.488 162.478 415.549C161.243 416.61 159.843 417.826 158.232 417.597C159.06 416.847 159.68 415.895 160.03 414.835C160.381 413.774 160.45 412.64 160.231 411.544C160.161 411.09 159.969 410.664 159.676 410.31C158.831 409.409 157.306 409.792 156.294 410.501C153.086 412.76 152.191 417.122 152.172 421.04C151.851 419.627 152.123 418.153 152.117 416.721C152.111 415.29 151.71 413.636 150.488 412.877C149.729 412.472 148.879 412.272 148.019 412.297C146.575 412.242 144.971 412.39 143.984 413.439C142.749 414.753 143.077 416.949 144.144 418.375C145.212 419.8 146.828 420.726 148.316 421.719C149.512 422.431 150.533 423.403 151.302 424.564C151.39 424.728 151.464 424.899 151.524 425.076H160.565C162.587 424.047 164.462 422.75 166.137 421.219Z" fill="#82ACAA"/>
<path d="M94.29 430.956C94.29 430.956 85.6138 401.518 95.9129 379.854C100.297 370.793 101.622 360.553 99.6895 350.675C98.7359 345.996 97.3539 341.415 95.5612 336.989" stroke="#535461" stroke-width="2" stroke-miterlimit="10"/>
<path d="M101.948 323.291C101.948 326.901 95.4193 337.365 95.4193 337.365C95.4193 337.365 88.8844 326.876 88.8844 323.291C88.9366 321.594 89.6476 319.983 90.8669 318.801C92.0861 317.619 93.7178 316.957 95.4162 316.957C97.1146 316.957 98.7463 317.619 99.9655 318.801C101.185 319.983 101.896 321.594 101.948 323.291Z" fill="#82ACAA"/>
<path d="M112.747 343.276C110.791 346.306 99.6155 351.538 99.6155 351.538C99.6155 351.538 99.8191 339.198 101.781 336.174C102.746 334.772 104.219 333.801 105.888 333.468C107.557 333.135 109.291 333.467 110.719 334.392C112.148 335.317 113.159 336.763 113.538 338.422C113.916 340.082 113.633 341.823 112.747 343.276Z" fill="#82ACAA"/>
<path d="M112.278 377.429C109.057 379.052 96.7708 377.929 96.7708 377.929C96.7708 377.929 103.176 367.384 106.397 365.761C107.165 365.354 108.007 365.105 108.873 365.027C109.739 364.95 110.611 365.046 111.44 365.31C112.268 365.573 113.035 366 113.697 366.564C114.358 367.128 114.9 367.818 115.291 368.595C115.683 369.371 115.915 370.217 115.975 371.084C116.035 371.952 115.921 372.822 115.641 373.645C115.36 374.467 114.918 375.226 114.341 375.876C113.763 376.525 113.062 377.053 112.278 377.429Z" fill="#82ACAA"/>
<path d="M106.101 403.19C103.201 405.337 90.9022 406.275 90.9022 406.275C90.9022 406.275 95.4316 394.804 98.3072 392.657C98.9918 392.096 99.7833 391.68 100.634 391.434C101.484 391.188 102.375 391.117 103.254 391.226C104.132 391.335 104.98 391.621 105.744 392.067C106.509 392.514 107.175 393.11 107.701 393.822C108.228 394.533 108.605 395.344 108.809 396.205C109.013 397.067 109.04 397.96 108.888 398.832C108.736 399.704 108.408 400.537 107.925 401.278C107.442 402.02 106.813 402.655 106.076 403.147L106.101 403.19Z" fill="#82ACAA"/>
<path d="M85.904 352.236C88.4895 354.747 100.547 357.357 100.547 357.357C100.547 357.357 97.5915 345.381 94.9936 342.863C94.3836 342.24 93.6549 341.745 92.8506 341.407C92.0462 341.07 91.1825 340.897 90.3102 340.899C89.438 340.9 88.5749 341.076 87.7718 341.417C86.9688 341.757 86.242 342.255 85.6343 342.881C85.0267 343.507 84.5505 344.248 84.2338 345.06C83.917 345.873 83.7662 346.741 83.7902 347.612C83.8142 348.484 84.0125 349.343 84.3734 350.137C84.7343 350.931 85.2505 351.644 85.8916 352.236H85.904Z" fill="#82ACAA"/>
<path d="M79.0605 382.451C82.2817 384.074 94.5677 382.951 94.5677 382.951C94.5677 382.951 88.1624 372.412 84.9413 370.784C83.3987 370.045 81.6281 369.94 80.0094 370.492C78.3907 371.045 77.0529 372.209 76.2832 373.736C75.5135 375.263 75.3732 377.031 75.8924 378.661C76.4117 380.29 77.5491 381.651 79.0605 382.451Z" fill="#82ACAA"/>
<path d="M76.444 412.735C79.3443 414.876 91.6365 415.82 91.6365 415.82C91.6365 415.82 87.1133 404.35 84.2316 402.202C82.836 401.272 81.1359 400.913 79.4833 401.201C77.8307 401.489 76.3521 402.401 75.3537 403.749C74.3553 405.097 73.9136 406.778 74.12 408.442C74.3264 410.107 75.1651 411.629 76.4625 412.692L76.444 412.735Z" fill="#82ACAA"/>
<path d="M101.948 323.291C101.948 326.901 95.4193 337.365 95.4193 337.365C95.4193 337.365 88.8844 326.876 88.8844 323.291C88.9366 321.594 89.6476 319.983 90.8669 318.801C92.0861 317.619 93.7178 316.957 95.4162 316.957C97.1146 316.957 98.7463 317.619 99.9655 318.801C101.185 319.983 101.896 321.594 101.948 323.291Z" fill="#82ACAA"/>
<path d="M112.747 343.276C110.791 346.306 99.6155 351.538 99.6155 351.538C99.6155 351.538 99.8191 339.198 101.781 336.174C102.746 334.772 104.219 333.801 105.888 333.468C107.557 333.135 109.291 333.467 110.719 334.392C112.148 335.317 113.159 336.763 113.538 338.422C113.916 340.082 113.633 341.823 112.747 343.276Z" fill="#82ACAA"/>
<path d="M112.278 377.429C109.057 379.052 96.7708 377.929 96.7708 377.929C96.7708 377.929 103.176 367.384 106.397 365.761C107.165 365.354 108.007 365.105 108.873 365.027C109.739 364.95 110.611 365.046 111.44 365.31C112.268 365.573 113.035 366 113.697 366.564C114.358 367.128 114.9 367.818 115.291 368.595C115.683 369.371 115.915 370.217 115.975 371.084C116.035 371.952 115.921 372.822 115.641 373.645C115.36 374.467 114.918 375.226 114.341 375.876C113.763 376.525 113.062 377.053 112.278 377.429Z" fill="#82ACAA"/>
<path d="M106.101 403.19C103.201 405.337 90.9022 406.275 90.9022 406.275C90.9022 406.275 95.4316 394.804 98.3072 392.657C98.9918 392.096 99.7833 391.68 100.634 391.434C101.484 391.188 102.375 391.117 103.254 391.226C104.132 391.335 104.98 391.621 105.744 392.067C106.509 392.514 107.175 393.11 107.701 393.822C108.228 394.533 108.605 395.344 108.809 396.205C109.013 397.067 109.04 397.96 108.888 398.832C108.736 399.704 108.408 400.537 107.925 401.278C107.442 402.02 106.813 402.655 106.076 403.147L106.101 403.19Z" fill="#82ACAA"/>
<path d="M85.904 352.236C88.4895 354.747 100.547 357.357 100.547 357.357C100.547 357.357 97.5915 345.381 94.9936 342.863C94.3836 342.24 93.6549 341.745 92.8506 341.407C92.0462 341.07 91.1825 340.897 90.3102 340.899C89.438 340.9 88.5749 341.076 87.7718 341.417C86.9688 341.757 86.242 342.255 85.6343 342.881C85.0267 343.507 84.5505 344.248 84.2338 345.06C83.917 345.873 83.7662 346.741 83.7902 347.612C83.8142 348.484 84.0125 349.343 84.3734 350.137C84.7343 350.931 85.2505 351.644 85.8916 352.236H85.904Z" fill="#82ACAA"/>
<path d="M79.0605 382.451C82.2817 384.074 94.5677 382.951 94.5677 382.951C94.5677 382.951 88.1624 372.412 84.9413 370.784C83.3987 370.045 81.6281 369.94 80.0094 370.492C78.3907 371.045 77.0529 372.209 76.2832 373.736C75.5135 375.263 75.3732 377.031 75.8924 378.661C76.4117 380.29 77.5491 381.651 79.0605 382.451Z" fill="#82ACAA"/>
<path d="M76.444 412.735C79.3443 414.876 91.6365 415.82 91.6365 415.82C91.6365 415.82 87.1133 404.35 84.2316 402.202C82.836 401.272 81.1359 400.913 79.4833 401.201C77.8307 401.489 76.3521 402.401 75.3537 403.749C74.3553 405.097 73.9136 406.778 74.12 408.442C74.3264 410.107 75.1651 411.629 76.4625 412.692L76.444 412.735Z" fill="#82ACAA"/>
<path d="M73.7721 429.105C73.7721 429.105 84.3365 427.007 87.1504 424.212C89.9643 421.417 102.639 416.524 104.046 420.016C105.453 423.508 123.052 435.392 111.081 437.49C99.1095 439.588 82.9234 440.285 79.4061 438.885C75.8887 437.484 73.7721 429.105 73.7721 429.105Z" fill="#A8A8A8"/>
<path opacity="0.2" d="M111.099 436.182C99.1341 438.28 82.9419 438.977 79.4246 437.583C76.7464 436.515 74.8828 431.413 74.1485 429.025L73.7721 429.105C73.7721 429.105 75.8887 437.49 79.4061 438.885C82.9234 440.279 99.1156 439.582 111.081 437.49C114.536 436.873 115.524 435.46 115.154 433.665C114.876 434.831 113.673 435.732 111.099 436.182Z" fill="black"/>
<path d="M446.934 161.649C450.247 157.946 448.951 152.177 448.951 152.177C448.951 152.177 433.315 112.33 431.581 111.892C429.847 111.453 425.496 101.402 425.496 101.402C425.496 101.402 383.8 61.7705 382.3 61.7705C380.801 61.7705 365.578 50.8245 363.628 50.6085C361.678 50.3926 358.629 49.2942 355.371 47.5234C352.113 45.7525 319.099 47.7455 317.797 49.2757C316.495 50.806 310.392 51.9043 310.392 51.9043C310.392 51.9043 298.013 52.5583 296.273 54.7488C294.533 56.9392 281.729 58.0992 281.729 58.0992C281.729 58.0992 275.428 60.4439 283.981 66.6697C281.241 67.1016 278.038 67.4348 274.786 67.6693C273.972 67.7248 273.145 67.7804 272.318 67.8235H271.831C271.284 66.1725 270.22 64.7419 268.795 63.745C267.863 63.2391 266.9 62.7919 265.913 62.4061C264.384 61.5929 262.951 60.6098 261.643 59.4752C255.312 54.441 248.556 49.9652 241.452 46.098C240.355 45.4115 239.132 44.952 237.854 44.7468C235.207 44.4938 232.843 46.351 230.252 46.9742C225.698 48.0664 221.106 45.2897 216.423 45.2465C210.573 45.191 205.247 49.7447 203.464 55.3596C202.804 57.439 202.508 59.7528 201.082 61.4003C199.231 63.5537 196.102 63.8684 193.566 65.1457C191.728 66.1041 190.188 67.5478 189.114 69.3198C188.039 71.0918 187.47 73.1245 187.469 75.197V75.2464C187.469 75.5734 187.469 75.9004 187.525 76.2274C187.815 78.8683 189.037 81.3056 189.932 83.8107C190.851 86.3775 191.432 89.0533 191.659 91.7703C191.662 91.799 191.662 91.828 191.659 91.8567C191.696 92.3071 191.727 92.7576 191.746 93.2142C191.746 93.3067 191.746 93.4055 191.746 93.5042C191.746 93.9361 191.746 94.3742 191.746 94.8123C191.746 97.1693 191.666 99.5449 191.672 101.902V102.025V103.093C191.672 103.179 191.672 103.266 191.672 103.352C191.672 103.667 191.672 103.969 191.709 104.302V104.635C191.709 104.925 191.752 105.222 191.783 105.512C191.783 105.635 191.783 105.764 191.814 105.888C191.814 106.172 191.881 106.449 191.919 106.727L191.974 107.122C192.017 107.4 192.067 107.677 192.116 107.955L192.19 108.337C192.252 108.634 192.326 108.955 192.4 109.226C192.431 109.331 192.449 109.43 192.474 109.535C192.585 109.946 192.708 110.341 192.844 110.719C193.768 113.31 195.294 115.645 197.295 117.532C199.297 119.418 201.718 120.803 204.359 121.573C205.353 121.847 206.382 121.976 207.413 121.955C209.265 121.912 211.036 121.338 212.134 120.073C212.406 120.382 212.671 120.69 212.955 120.999C216.98 125.376 222 128.717 227.592 130.741C233.183 132.764 239.18 133.41 245.073 132.623C250.967 131.835 256.584 129.639 261.449 126.219C266.313 122.799 270.28 118.257 273.015 112.978C273.663 112.836 274.305 112.706 274.953 112.583C276.076 112.373 277.205 112.175 278.341 111.966L279.433 111.793L279.865 111.719C285.419 110.843 290.812 110.256 294.675 109.868L279.408 111.762C279.408 111.762 275.706 129.539 274.638 131.507C273.571 133.475 278.341 136.758 278.341 136.758C278.341 136.758 282.469 141.793 282.469 143.329C282.469 144.865 287.245 149.24 288.547 151.647C288.713 151.952 288.921 152.232 289.164 152.48C288.2 152.852 287.31 153.394 286.536 154.078C283.518 156.934 284.524 161.945 283.142 165.869C282.278 168.337 280.47 170.336 278.73 172.28C278.105 172.914 277.58 173.641 277.174 174.433C276.948 174.959 276.809 175.517 276.761 176.087C276.73 176.403 276.718 176.72 276.724 177.037V177.148C276.724 177.395 276.724 177.636 276.773 177.876C276.773 177.981 276.773 178.086 276.773 178.191C277.076 180.77 277.952 183.263 278.217 185.842C278.483 188.421 278.162 191.019 278.692 193.53C278.876 194.406 279.162 195.257 279.544 196.066L270.707 205.939C270.707 205.939 270.652 206.426 270.633 207.228C263.265 213.343 251.874 224.881 255.941 235.056C256.385 236.171 256.796 237.238 257.175 238.259C254.182 240.165 253.195 242.43 257.681 244.688C258.391 245.046 259.075 245.354 259.748 245.632C262.05 252.388 262.951 254.27 266.808 249.291C267.221 248.748 267.702 248.057 268.227 247.31C273.657 247.199 276.798 244.688 276.798 244.688C276.798 244.688 291.997 243.812 295.928 246.224C297.896 247.458 302.524 247.705 306.622 247.674C306.567 252.088 306.773 256.502 307.239 260.891C307.239 260.891 306.585 279.501 308.325 283.443C310.065 287.386 311.028 294.174 311.028 294.174C311.028 294.174 308.109 300.739 309.843 304.243C311.577 307.748 308.325 312.783 308.325 312.783V325.697L309.559 325.611C309.466 326.481 309.349 327.394 309.195 328.264C308.837 330.282 308.3 332.09 307.473 332.676C305.301 334.237 305.085 342.548 305.085 342.548C305.085 342.548 301.611 352.624 302.259 354.377C302.907 356.129 298.137 359.628 299.223 362.256C300.309 364.885 302.53 381.52 304.462 386.32C306.393 391.121 300.525 389.825 300.525 389.825L302.259 402.301C302.259 402.301 303.999 415 302.697 415.876C301.395 416.752 293.904 423.101 299.056 426.822C299.457 427.112 299.865 427.377 300.29 427.63C300.313 428.206 300.299 428.783 300.247 429.358C300.148 430.339 299.902 431.122 299.352 431.209C297.822 431.431 294.78 432.961 294.138 432.307C293.496 431.653 289.818 433.961 286.116 434.714L285.604 434.794L280.797 433.56C273.842 430.91 266.207 430.628 259.075 432.758C259.075 432.758 255.589 433.301 253.898 435.904C253.04 437.237 252.664 439.113 253.429 441.729C255.749 449.467 271.565 452.132 271.565 452.132C271.565 452.132 277.045 453.261 283.629 454.755C283.413 454.755 283.191 454.755 282.969 454.755C281.152 454.742 279.396 455.411 278.048 456.63C276.7 457.848 275.858 459.528 275.688 461.337C275.517 463.146 276.032 464.954 277.129 466.402C278.226 467.85 279.827 468.835 281.615 469.161C283.402 469.487 285.248 469.132 286.786 468.164C288.324 467.197 289.444 465.688 289.924 463.935C290.404 462.183 290.209 460.314 289.379 458.698C288.548 457.081 287.142 455.835 285.437 455.205C292.842 456.908 301.043 458.981 304.375 460.444C306.856 461.378 309.399 462.141 311.984 462.727C312.112 464.258 312.724 465.709 313.733 466.868C314.742 468.027 316.095 468.833 317.594 469.171C319.094 469.508 320.661 469.358 322.07 468.743C323.478 468.128 324.653 467.079 325.424 465.75C335.501 467.854 345.208 469.637 345.208 469.637L361.418 469.903H361.53C359.619 469.916 357.792 470.685 356.448 472.043C355.104 473.401 354.353 475.236 354.359 477.146C354.366 479.057 355.129 480.887 356.482 482.235C357.836 483.584 359.668 484.341 361.579 484.341C363.489 484.341 365.322 483.584 366.675 482.235C368.029 480.887 368.792 479.057 368.799 477.146C368.805 475.236 368.054 473.401 366.71 472.043C365.366 470.685 363.539 469.916 361.628 469.903L386.17 470.304C385.875 471.302 385.799 472.353 385.947 473.383C386.095 474.414 386.464 475.4 387.028 476.276C387.591 477.151 388.337 477.894 389.215 478.455C390.092 479.016 391.08 479.382 392.111 479.527C393.142 479.671 394.192 479.592 395.19 479.294C396.188 478.997 397.109 478.487 397.893 477.801C398.676 477.115 399.302 476.268 399.728 475.318C400.154 474.368 400.371 473.338 400.362 472.297C400.361 471.702 400.287 471.109 400.14 470.532L421.787 470.884L426.107 466.133C426.348 465.671 426.493 465.165 426.533 464.646C426.662 463.084 425.854 460.715 420.325 459.709C419.918 459.635 408.638 459.814 398.672 459.981V456.069C398.672 456.069 398.394 453.915 398.221 451.379C398.172 450.633 398.129 449.855 398.11 449.09C398.674 449.477 399.3 449.763 399.961 449.936C404.09 450.596 409.736 438.552 409.736 438.552C409.736 438.552 409.736 431.764 411.038 426.291C412.34 420.818 414.74 402.425 414.74 402.425L419.961 380.317C419.961 380.317 422.121 335.212 421.035 333.46C419.949 331.707 422.343 328.641 422.343 328.641C422.343 328.641 424.077 319.009 421.473 315.726C418.869 312.444 422.991 309.155 422.991 309.155C422.991 309.155 424.077 297.771 421.035 293.396C417.992 289.021 422.46 285.955 422.46 285.955L423.546 268.221C428.106 263.625 432.229 236.259 432.451 230.348C432.508 227.021 433.247 223.741 434.623 220.71C434.623 220.71 437.659 216.113 438.097 213.047C438.535 209.98 441.799 203.637 441.799 203.637L447.446 182.615C449.723 174.137 449.143 167.868 447.631 163.401C447.409 162.772 447.174 162.198 446.934 161.649ZM344.924 162.883C348.398 165.073 347.312 165.727 348.398 167.041C349.484 168.356 348.614 168.134 347.744 170.324C346.874 172.514 347.528 171.86 347.96 174.267C348.392 176.673 348.182 176.673 348.182 176.673L349.268 176.827L347.756 186.99C345.288 188.6 344.159 191.685 343.647 194.869C342.19 192.969 340.722 190.994 339.407 189.156C339.858 188.15 339.771 186.953 339.784 185.824C339.833 182.122 341.215 178.586 341.851 174.939C342.5 171.23 342.38 167.426 341.499 163.765C341.183 162.387 340.696 161.054 340.049 159.798C341.456 160.735 343.239 161.846 344.924 162.907V162.883ZM348.83 377.441C348.83 377.441 351.576 375.59 354.242 373.906C355.137 380.403 355.982 387.159 356.581 393.268C355.624 391.145 354.958 389.702 354.958 389.702C353.978 388.524 353.391 387.07 353.279 385.543C353.174 383.161 348.83 377.466 348.83 377.466V377.441ZM332.545 152.399C333.162 152.486 334.039 153.269 334.865 154.207C334.1 153.59 333.329 152.973 332.539 152.393L332.545 152.399ZM292.799 233.403C290.294 234.192 281.803 234.075 276.755 233.779C278.643 230.552 280.519 227.269 282.185 224.326C283.168 224.581 284.168 224.76 285.178 224.863L301.71 210.344C307.928 212.525 314.711 212.482 320.901 210.221L321.351 210.924C321.543 211.233 321.746 211.541 321.968 211.887L321.555 211.214C321.555 211.214 315.174 215.015 315.822 216.768C316.47 218.52 314.958 222.895 312.57 227.584C311.953 228.756 311.416 229.916 310.898 231.083C305.492 231.589 295.304 232.613 292.799 233.403ZM324.165 435.689L324.073 433.955C325.122 433.726 325.813 433.517 325.813 433.517C325.596 430.944 325.233 428.385 324.727 425.853C324.073 423.225 324.412 424.101 326.954 422.151C329.497 420.201 326.954 398.087 326.954 398.087C326.954 398.087 328.189 396.551 330.145 400.493C332.101 404.436 334.063 406.843 334.717 407.059C335.371 407.274 332.107 411.661 334.717 415.82C336.338 418.51 337.441 421.48 337.969 424.576C337.969 424.576 336.235 431.53 338.839 434.621C339.191 434.981 339.611 435.269 340.074 435.466C340.074 436.04 340.074 436.651 340.074 437.225C340.074 438.379 340.074 439.366 340.018 439.576C339.993 439.724 339.93 439.862 339.835 439.979C339.74 440.095 339.617 440.185 339.477 440.24C339.338 440.294 339.186 440.312 339.038 440.291C338.889 440.27 338.749 440.21 338.63 440.119C337.957 439.681 333.693 440.662 333.983 443.408C332.975 444.599 331.832 445.669 330.577 446.598L324.659 445.067L324.165 435.689Z" fill="url(#paint0_linear_89_52)"/>
<path d="M270.868 208.863C270.868 208.863 268.801 225.801 285.197 227.535L287.665 215.811L282.5 208.863L275.101 206.358L270.868 208.863Z" fill="#82ACAA"/>
<path opacity="0.1" d="M275.101 206.358L270.868 208.857C270.868 208.857 268.801 225.795 285.197 227.528" fill="black"/>
<path d="M300.617 113.095C300.617 113.095 289.553 113.773 278.458 115.612C277.323 115.806 276.193 116.011 275.07 116.229C274.416 116.353 273.774 116.482 273.133 116.624C267.32 117.821 262.025 119.376 258.94 121.363C255.237 123.738 254.003 117.34 253.886 108.449C253.836 105.32 253.941 101.89 254.108 98.4219C254.324 94.4112 254.639 90.3512 254.972 86.6984C255.706 78.603 256.552 72.3093 256.552 72.3093C256.552 72.3093 260.427 72.3093 265.604 72.1304L267.27 72.0687C268.893 72.007 270.615 71.9206 272.349 71.8157C273.17 71.7725 273.996 71.7231 274.817 71.6614C278.1 71.427 281.34 71.0938 284.073 70.6619C286.986 70.1929 289.349 69.6006 290.633 68.8108C296.495 65.3184 300.617 113.095 300.617 113.095Z" fill="#F8BDC5"/>
<path d="M349.916 175.637L347.756 189.97C347.756 189.97 343.048 195.832 343.665 199.09C344.282 202.348 349.712 346.325 349.712 346.325C349.712 346.325 360.357 407.126 356.661 414.944C352.964 422.762 356.445 441.007 356.445 441.007L378.598 437.533L386.003 171.725L349.916 175.637Z" fill="#474463"/>
<path opacity="0.1" d="M349.916 175.637L347.756 189.97C347.756 189.97 343.048 195.832 343.665 199.09C344.282 202.348 349.712 346.325 349.712 346.325C349.712 346.325 360.357 407.126 356.661 414.944C352.964 422.762 356.445 441.007 356.445 441.007L378.598 437.533L386.003 171.725L349.916 175.637Z" fill="black"/>
<path d="M398.783 444.697C398.079 445.863 398.135 449.294 398.332 452.212C398.505 454.724 398.783 456.859 398.783 456.859V471.624C398.783 471.624 375.111 463.374 362.079 454.687C356.704 451.102 355.174 447.77 355.47 445.104C355.902 441.31 360.036 438.835 362.079 438.835C364.029 438.835 370.187 435.436 375.235 432.431C379.203 430.08 382.498 427.976 382.498 427.976C382.498 427.976 400.085 442.525 398.783 444.697Z" fill="#575988"/>
<path opacity="0.1" d="M398.783 444.697C398.079 445.863 398.135 449.294 398.332 452.212C393.069 449.744 376.771 433.936 375.235 432.431C379.203 430.08 382.498 427.976 382.498 427.976C382.498 427.976 400.085 442.525 398.783 444.697Z" fill="black"/>
<path d="M447.433 185.626L441.787 206.476C441.787 206.476 438.529 212.769 438.085 215.811C437.64 218.853 434.61 223.413 434.61 223.413C433.239 226.414 432.5 229.665 432.438 232.964C432.222 238.832 428.119 265.975 423.534 270.535L422.448 288.127C422.448 288.127 418.128 291.162 421.146 295.531C424.163 299.9 423.102 311.166 423.102 311.166C423.102 311.166 418.974 314.424 421.584 317.682C424.194 320.94 422.448 330.498 422.448 330.498C422.448 330.498 420.06 333.534 421.146 335.274C422.232 337.014 420.072 381.748 420.072 381.748L414.852 403.677C414.852 403.677 412.457 421.923 411.149 427.352C409.841 432.782 409.847 439.508 409.847 439.508C409.847 439.508 404.201 451.453 400.072 450.806C395.944 450.158 375.969 430.604 375.969 430.604L378.789 364.582C378.789 364.582 381.177 336.569 379.659 331.14C378.141 325.71 377.055 298.567 377.055 298.567L374.013 255.788L343.64 208.012C343.64 208.012 341.437 194.11 347.732 189.989L348.873 182.479L349.904 175.655L385.96 171.743L441.121 157.416C441.121 157.416 445.372 160.038 447.6 166.585C449.124 170.997 449.71 177.216 447.433 185.626Z" fill="#474463"/>
<path d="M351.459 207.592C351.459 207.592 325.831 239.061 326.917 230.268C327.596 224.746 324.091 218.002 321.364 213.738C319.753 211.202 318.42 209.542 318.42 209.542C318.42 209.542 334.057 180.881 334.927 184.787C335.205 186.021 337.013 188.853 339.339 192.086C344.245 198.861 351.459 207.592 351.459 207.592Z" fill="#FFC1C8"/>
<path opacity="0.3" d="M398.783 468.551V471.636C398.783 471.636 375.111 463.387 362.079 454.699C356.704 451.114 355.174 447.782 355.47 445.117C362.665 448.757 376.049 455.699 380.104 458.827C383.547 461.48 392.445 465.682 398.783 468.551Z" fill="white"/>
<path d="M393.21 480.269C397.208 480.269 400.449 477.028 400.449 473.031C400.449 469.034 397.208 465.793 393.21 465.793C389.213 465.793 385.972 469.034 385.972 473.031C385.972 477.028 389.213 480.269 393.21 480.269Z" fill="#474463"/>
<path d="M319.272 470.106C323.269 470.106 326.51 466.866 326.51 462.869C326.51 458.871 323.269 455.631 319.272 455.631C315.274 455.631 312.033 458.871 312.033 462.869C312.033 466.866 315.274 470.106 319.272 470.106Z" fill="#474463"/>
<path d="M426.644 465.442C426.603 465.957 426.458 466.459 426.218 466.916L421.898 471.624L361.523 470.655L345.288 470.39C345.288 470.39 311.114 464.17 304.456 461.27C297.797 458.37 271.621 453.064 271.621 453.064C271.621 453.064 255.811 450.411 253.491 442.741C252.707 440.143 253.102 438.286 253.96 436.966C255.644 434.38 259.137 433.837 259.137 433.837C266.271 431.73 273.899 432.012 280.858 434.64L382.06 460.672L383.627 461.073C383.627 461.073 419.702 460.4 420.43 460.53C425.965 461.542 426.773 463.893 426.644 465.442Z" fill="#82ACAA"/>
<path opacity="0.3" d="M426.644 465.442C420.572 464.652 409.983 463.486 407.255 464.609C407.255 464.609 387.996 462.227 361.499 470.655L345.288 470.39C345.288 470.39 311.114 464.17 304.456 461.27C297.797 458.37 271.621 453.064 271.621 453.064C271.621 453.064 255.811 450.411 253.491 442.741C252.707 440.143 253.102 438.286 253.96 436.966C255.04 440.113 257.119 444.672 260.439 445.95C265.653 447.955 287.085 452.04 287.085 452.04L329.503 462.424C329.503 462.424 353.995 467.737 363.529 464.275C367.435 462.869 374.766 461.616 382.041 460.635L383.609 461.036C383.609 461.036 419.683 460.363 420.411 460.493C425.965 461.542 426.773 463.893 426.644 465.442Z" fill="white"/>
<path d="M368.064 457.624C368.013 458.533 367.899 459.438 367.725 460.333C367.725 460.333 343.733 461.19 331.243 459.339C327.794 458.827 325.844 457.722 324.875 456.402C324.442 455.778 324.174 455.055 324.095 454.3C324.017 453.545 324.13 452.783 324.424 452.083C324.562 451.681 324.738 451.292 324.949 450.923C325.881 449.294 327.312 448.14 328.096 448.294C330.268 448.732 333.995 444.278 333.995 444.278C333.699 441.556 337.975 440.575 338.642 441.02C338.761 441.111 338.901 441.17 339.05 441.192C339.198 441.213 339.35 441.195 339.49 441.14C339.629 441.086 339.753 440.996 339.847 440.88C339.942 440.763 340.005 440.624 340.03 440.477C340.074 440.273 340.086 439.292 340.086 438.144C340.086 436.231 340.03 433.825 340.03 433.825L364.146 436.756L365.102 441.365C365.979 445.475 367.2 451.12 367.725 453.052C368.09 454.546 368.204 456.091 368.064 457.624Z" fill="#474463"/>
<path opacity="0.1" d="M368.064 457.624C368.013 458.533 367.9 459.438 367.725 460.333C367.725 460.333 343.733 461.19 331.243 459.339C327.794 458.827 325.844 457.723 324.875 456.402C328.078 456.211 332.243 456.106 334.822 456.735C338.5 457.649 360.499 457.648 368.064 457.624Z" fill="black"/>
<path d="M324.924 450.91C324.95 451.133 324.915 451.359 324.823 451.563C324.731 451.768 324.584 451.943 324.4 452.07C321.364 454.415 306.794 451.867 306.794 451.867C306.794 451.867 277.026 450.016 272.577 446.98C272.176 446.716 271.84 446.364 271.596 445.95C269.745 442.605 276.446 436.99 277.026 436.99C277.606 436.99 285.61 435.898 286.147 435.793C289.849 435.047 293.552 432.751 294.169 433.405C294.786 434.059 297.871 432.535 299.377 432.319C299.926 432.239 300.179 431.462 300.272 430.468C300.359 429.124 300.313 427.775 300.136 426.439L323.912 432.838L324.122 436.626L324.807 449.238L324.893 450.787C324.908 450.827 324.919 450.868 324.924 450.91Z" fill="#474463"/>
<path opacity="0.1" d="M306.819 451.867C306.819 451.867 277.051 450.016 272.602 446.98C272.2 446.716 271.865 446.364 271.621 445.95C277.65 446.443 287.702 447.276 289.516 447.739C292.126 448.356 306.794 449.257 306.794 449.257H324.832L324.918 450.806C325.702 455.174 306.819 451.867 306.819 451.867Z" fill="black"/>
<path d="M283.024 470.106C287.022 470.106 290.263 466.866 290.263 462.869C290.263 458.871 287.022 455.631 283.024 455.631C279.027 455.631 275.786 458.871 275.786 462.869C275.786 466.866 279.027 470.106 283.024 470.106Z" fill="#474463"/>
<path d="M361.641 485.131C365.638 485.131 368.879 481.89 368.879 477.893C368.879 473.896 365.638 470.655 361.641 470.655C357.643 470.655 354.402 473.896 354.402 477.893C354.402 481.89 357.643 485.131 361.641 485.131Z" fill="#474463"/>
<path d="M288.023 216.681C288.023 216.681 286.653 219.149 284.592 222.814C279.655 231.527 270.775 246.971 266.956 251.858C261.525 258.806 261.963 252.296 256.095 237.746C251.738 226.924 265.148 214.54 272.318 208.913C274.786 206.957 276.514 205.828 276.514 205.828L288.023 216.681Z" fill="#F8BDC5"/>
<path d="M314.298 233.403C314.298 233.403 296.273 234.92 292.799 236.006C289.325 237.092 274.342 236.438 273.052 236.006C271.763 235.574 246.117 241.436 257.847 247.298C269.578 253.16 276.977 247.298 276.977 247.298C276.977 247.298 292.182 246.428 296.107 248.822C300.031 251.216 314.347 249.908 314.347 249.908L314.298 233.403Z" fill="#FFC1C8"/>
<path opacity="0.1" d="M276.854 100.501C279.075 106.184 277.687 111.133 275.07 116.211C268.517 117.445 262.352 119.142 258.921 121.344C249.147 127.644 256.533 72.2661 256.533 72.2661C256.533 72.2661 261.26 72.2661 267.252 72.0255C265.438 80.306 272.312 88.9012 276.854 100.501Z" fill="black"/>
<path d="M277.409 99.2672C277.397 108.363 274.038 117.135 267.971 123.912C261.904 130.689 253.554 134.996 244.515 136.01C235.475 137.025 226.379 134.677 218.96 129.414C211.541 124.151 206.32 116.342 204.291 107.475C202.263 98.6089 203.57 89.3062 207.963 81.3416C212.355 73.3771 219.527 67.3082 228.108 64.2925C236.69 61.2769 246.082 61.5256 254.492 64.9912C262.902 68.4568 269.741 74.8968 273.706 83.0826C276.15 88.1276 277.416 93.6616 277.409 99.2672Z" fill="#F8BDC5"/>
<path opacity="0.1" d="M447.612 166.566C446.44 168.272 444.684 169.49 442.676 169.991C434.203 172.379 374.476 186.712 370.57 185.842C367.12 185.077 352.316 182.948 348.904 182.461L349.934 175.637L385.991 171.725L441.151 157.397C441.151 157.397 445.385 160.02 447.612 166.566Z" fill="black"/>
<path opacity="0.1" d="M300.617 113.095C293.558 113.518 286.524 114.3 279.544 115.439C279.643 115.122 279.63 114.78 279.507 114.471L293.947 112.688C293.947 112.688 291.836 78.7511 284.073 70.6187C286.986 70.1497 289.35 69.5574 290.633 68.7676C296.495 65.3184 300.617 113.095 300.617 113.095Z" fill="black"/>
<path d="M281.729 62.1284C281.729 62.1284 294.545 60.9746 296.279 58.8026C298.013 56.6307 310.398 55.9828 310.398 55.9828C310.398 55.9828 316.476 54.8968 317.803 53.3728C319.13 51.8487 352.113 49.8989 355.371 51.6389C358.629 53.379 361.671 54.4588 363.628 54.6809C365.584 54.903 380.782 65.7503 382.3 65.7503C383.818 65.7503 425.496 105.061 425.496 105.061C425.496 105.061 429.816 115.051 431.581 115.483C433.345 115.915 448.958 155.441 448.958 155.441C448.958 155.441 451.13 164.993 442.663 167.387C434.197 169.781 374.464 184.108 370.557 183.238C366.651 182.368 348.188 179.764 348.188 179.764C348.188 179.764 348.404 179.764 347.972 177.377C347.54 174.989 346.886 175.637 347.75 173.465C348.614 171.293 349.49 171.509 348.404 170.207C347.318 168.905 348.404 168.251 344.93 166.079C341.456 163.907 337.525 161.519 337.328 160.871C337.13 160.223 334.069 155.873 332.551 155.657C331.033 155.441 288.461 143.496 288.461 143.496L278.47 140.238C278.47 140.238 273.694 136.98 274.768 135.03C275.842 133.08 279.538 115.439 279.538 115.439L294.811 113.558C294.811 113.558 292.534 76.7828 283.981 70.6125C275.428 64.4422 281.729 62.1284 281.729 62.1284Z" fill="#82ACAA"/>
<path opacity="0.1" d="M288.023 216.681C288.023 216.681 286.653 219.149 284.592 222.814C284.271 211.486 276.348 209.289 272.318 208.913C274.786 206.957 276.514 205.828 276.514 205.828L288.023 216.681Z" fill="black"/>
<path d="M277.409 134.376L278.458 140.238C278.458 140.238 282.586 145.236 282.586 146.754C282.586 148.271 287.362 152.615 288.671 155.003C289.979 157.391 294.533 157.829 292.793 161.957C291.053 166.085 281.068 197.572 281.068 197.572L270.862 208.863C270.862 208.863 287.801 207.339 285.19 227.535L307.128 208.407L324.307 177.154C324.307 177.154 307.584 145.452 306.936 142.848C306.288 140.244 277.409 134.376 277.409 134.376Z" fill="#82ACAA"/>
<path opacity="0.1" d="M328.201 145.236C328.201 145.236 342.098 135.462 342.098 134.376C342.098 133.29 328.201 145.236 328.201 145.236Z" fill="black"/>
<path opacity="0.1" d="M351.459 157.397C351.459 157.397 358.864 155.657 359.481 151.751C360.098 147.846 351.459 157.397 351.459 157.397Z" fill="black"/>
<path opacity="0.1" d="M357.518 167.387C357.518 167.387 367.947 162.222 367.509 161.328C367.071 160.433 357.518 167.387 357.518 167.387Z" fill="black"/>
<path opacity="0.1" d="M413.333 134.308C413.333 134.308 409.014 137.128 410.297 139.769C411.581 142.41 413.333 134.308 413.333 134.308Z" fill="black"/>
<path opacity="0.1" d="M426.126 135.462C426.126 135.462 413.821 147.185 416.604 147.408C419.387 147.63 426.126 135.462 426.126 135.462Z" fill="black"/>
<path opacity="0.1" d="M398.135 317.226C398.135 317.226 413.988 320.268 414.42 321.353C414.852 322.439 398.135 317.226 398.135 317.226Z" fill="black"/>
<path opacity="0.1" d="M403.781 327.647C403.781 327.647 412.247 332.861 412.463 334.379C412.679 335.897 403.781 327.647 403.781 327.647Z" fill="black"/>
<path opacity="0.1" d="M401.825 339.377C401.825 339.377 403.127 345.239 405.299 346.109C407.471 346.979 401.825 339.377 401.825 339.377Z" fill="black"/>
<path opacity="0.1" d="M273.744 82.8913C273.744 82.953 273.744 83.0209 273.713 83.0826C273.417 85.0139 272.627 87.1056 270.812 87.7473C269.716 88.0556 268.545 87.948 267.523 87.445C264.438 86.0937 261.692 82.8481 258.397 83.6318C256.829 84.002 255.731 85.1928 254.953 86.6552C254.414 87.7078 254 88.8198 253.719 89.9686C253.102 92.3874 252.609 95.0159 253.553 97.3174C253.708 97.6939 253.894 98.0571 254.108 98.4034C254.984 99.804 256.218 100.995 257.082 102.408C258.156 104.173 258.434 106.82 256.761 108.029C256.342 108.305 255.866 108.484 255.369 108.553C254.872 108.623 254.365 108.58 253.886 108.43C252.661 108.045 251.483 107.524 250.375 106.875C248.19 105.734 245.438 105.024 243.365 106.345C242.649 106.789 242.075 107.43 241.39 107.899C239.966 108.781 238.277 109.133 236.62 108.893C232.695 108.492 231.227 106.005 228.228 104.08C226.031 102.661 221.44 102.056 220.132 104.956C219.292 106.807 220.539 109.14 219.718 111.028C218.897 112.916 216.287 113.496 215.078 115.248C213.486 117.556 214.967 120.894 213.8 123.455C213.622 123.851 213.382 124.218 213.091 124.541C206.551 117.495 202.999 108.188 203.181 98.5779C203.364 88.9674 207.266 79.802 214.067 73.0092C220.869 66.2163 230.039 62.3254 239.651 62.1546C249.262 61.9838 258.566 65.5465 265.604 72.0934L267.27 72.0317C268.893 71.97 270.615 71.8836 272.349 71.7787C272.759 72.6468 273.079 73.5544 273.305 74.4874C273.977 77.2365 274.125 80.0873 273.744 82.8913Z" fill="black"/>
<path d="M219.249 104.092C218.404 105.943 219.65 108.276 218.836 110.158C218.021 112.04 215.392 112.626 214.195 114.378C212.597 116.692 214.078 120.03 212.918 122.585C211.585 125.503 207.561 125.96 204.476 125.108C201.84 124.356 199.421 122.987 197.419 121.114C195.417 119.242 193.889 116.921 192.961 114.341C190.869 108.387 192.221 101.834 191.678 95.5465C191.447 92.8522 190.866 90.1993 189.95 87.6548C189.055 85.1867 187.833 82.7556 187.543 80.1332C187.336 77.9082 187.8 75.672 188.876 73.7132C189.951 71.7544 191.589 70.1629 193.578 69.144C196.121 67.9099 199.249 67.5582 201.101 65.4418C202.52 63.8005 202.822 61.5114 203.483 59.4443C205.266 53.8911 210.591 49.3621 216.441 49.4176C221.119 49.4547 225.697 52.2128 230.27 51.1268C232.856 50.5098 235.207 48.6587 237.873 48.924C239.149 49.1248 240.373 49.5801 241.47 50.263C248.567 54.0962 255.321 58.5346 261.655 63.529C262.965 64.6573 264.4 65.6324 265.931 66.4352C266.917 66.8196 267.88 67.2626 268.813 67.7618C270.806 68.9959 271.849 71.3468 272.417 73.6298C273.098 76.3771 273.253 79.2287 272.873 82.0337C272.602 84.0143 271.824 86.2356 269.942 86.8958C268.843 87.2025 267.669 87.0904 266.647 86.5812C263.562 85.2422 260.822 81.9966 257.527 82.7741C254.836 83.3911 253.54 86.4392 252.837 89.111C252.22 91.5297 251.714 94.1582 252.67 96.4659C253.46 98.3787 255.138 99.7793 256.194 101.55C257.249 103.321 257.551 105.968 255.873 107.171C254.022 108.51 251.51 107.085 249.48 106.024C247.308 104.882 244.543 104.173 242.476 105.487C241.766 105.931 241.192 106.573 240.501 107.048C239.077 107.921 237.392 108.27 235.737 108.035C231.807 107.634 230.338 105.147 227.345 103.222C225.142 101.791 220.563 101.186 219.249 104.092Z" fill="#474463"/>
<path opacity="0.1" d="M339.345 192.056C339.179 192.981 337.908 193.086 337.648 193.987C335.18 202.693 329.75 210.523 321.37 213.732C319.759 211.196 318.426 209.536 318.426 209.536C318.426 209.536 334.063 180.875 334.933 184.781C335.211 185.996 337.019 188.822 339.345 192.056Z" fill="black"/>
<path d="M339.808 186.058C339.809 191.728 338.129 197.271 334.98 201.986C331.83 206.701 327.353 210.377 322.114 212.547C316.876 214.718 311.111 215.287 305.549 214.181C299.987 213.076 294.878 210.346 290.868 206.337C286.858 202.328 284.127 197.22 283.02 191.659C281.914 186.098 282.481 180.334 284.651 175.095C286.821 169.857 290.495 165.379 295.21 162.229C299.925 159.079 305.468 157.397 311.139 157.397C314.907 157.383 318.641 158.115 322.125 159.551C325.609 160.986 328.775 163.096 331.44 165.761C334.105 168.425 336.216 171.59 337.652 175.073C339.089 178.557 339.821 182.29 339.808 186.058Z" fill="#FFC1C8"/>
<path opacity="0.1" d="M323.962 432.856L324.171 436.645C321.66 437.2 316.884 437.928 314.101 436.225C310.503 434.023 305.19 433.486 300.321 430.487C300.408 429.143 300.362 427.793 300.185 426.458L323.962 432.856Z" fill="black"/>
<path opacity="0.1" d="M365.102 441.377C364.936 442.223 364.782 442.741 364.782 442.741C364.782 442.741 345.621 440.779 340.098 438.132C340.098 436.219 340.043 433.813 340.043 433.813L364.158 436.744L365.102 441.377Z" fill="black"/>
<path d="M360.777 355.228C359.475 358.702 358.82 359.356 360.129 361.09C361.437 362.824 360.777 371.95 358.703 372.814C356.63 373.677 348.83 378.891 348.83 378.891C348.83 378.891 353.15 384.537 353.279 386.913C353.393 388.43 353.98 389.874 354.958 391.04C354.958 391.04 361.647 405.374 362.98 409.934C364.312 414.494 365.534 421.657 365.534 421.657C365.534 421.657 363.196 428.173 364.812 431.869C366.429 435.565 364.812 440.989 364.812 440.989C364.812 440.989 341.48 438.601 338.895 435.534C336.309 432.468 338.031 425.569 338.031 425.569C337.498 422.495 336.393 419.548 334.773 416.882C332.163 412.754 335.39 408.416 334.773 408.194C334.156 407.972 332.163 405.59 330.2 401.684C328.238 397.778 327.016 399.29 327.016 399.29C327.016 399.29 329.558 421.225 327.016 423.181C324.474 425.137 324.128 424.267 324.782 426.884C325.289 429.395 325.652 431.933 325.868 434.485C325.868 434.485 318.05 436.873 314.144 434.485C310.238 432.097 304.357 431.659 299.192 427.97C294.027 424.28 301.531 417.98 302.833 417.11C304.135 416.24 302.401 403.646 302.401 403.646L300.661 391.269C300.661 391.269 306.523 392.571 304.598 387.795C302.672 383.019 300.445 366.514 299.359 363.91C298.272 361.306 303.061 357.826 302.401 356.092C301.74 354.358 305.221 344.369 305.221 344.369C305.221 344.369 305.443 336.119 307.609 334.57C308.436 333.99 308.973 332.189 309.331 330.196C309.71 327.843 309.935 325.469 310.003 323.087C310.003 323.087 359.734 319.614 367.768 324.389C371.384 326.537 371.131 330.492 369.619 334.496C367.768 339.383 363.967 344.369 363.01 346.176C361.215 349.508 362.079 351.754 360.777 355.228Z" fill="#575988"/>
<path opacity="0.1" d="M369.558 334.496C363.387 336.23 355.167 338.778 353.828 340.241C351.656 342.635 344.27 326.777 344.27 326.777C344.27 326.777 344.708 338.698 334.933 333.713C326.473 329.393 312.817 329.961 309.287 330.196C309.667 327.843 309.892 325.469 309.96 323.087C309.96 323.087 359.691 319.614 367.725 324.389C371.341 326.537 371.088 330.492 369.558 334.496Z" fill="black"/>
<path d="M344.27 203.218C344.27 203.218 348.589 198.004 349.484 199.96C350.379 201.916 355.476 205.822 355.476 205.822C355.476 205.822 356.938 210.381 359.512 211.035C362.085 211.689 381.412 237.746 381.412 237.746L374.457 251.858L368.811 286.171C368.811 286.171 369.058 291.601 367.521 293.575C365.985 295.549 360.116 295.093 362.838 297.481C365.559 299.869 369.465 302.041 371.637 312.906C373.809 323.772 376.413 330.06 376.413 330.06C376.413 330.06 356 335.274 353.828 337.662C351.656 340.049 344.27 324.198 344.27 324.198C344.27 324.198 344.708 336.113 334.933 331.133C325.159 326.154 308.436 327.672 308.436 327.672V314.838C308.436 314.838 311.694 309.84 309.96 306.366C308.226 302.892 311.145 296.376 311.145 296.376C311.145 296.376 310.176 289.645 308.436 285.739C306.696 281.833 307.35 263.372 307.35 263.372C307.35 263.372 306.029 251.426 307.232 245.342C308.254 240.069 310.057 234.978 312.583 230.237C314.971 225.585 316.483 221.241 315.835 219.501C315.187 217.761 321.567 213.997 321.567 213.997L325.103 219.717L326.004 223.135C326.004 223.135 344.708 209.733 344.27 203.218Z" fill="#DCE6F2"/>
<path d="M375.525 233.403C375.525 233.403 387.688 245.342 388.99 247.298C390.292 249.254 394.654 259.423 389.008 262.508C383.362 265.593 361.239 270.35 359.043 268.709C356.846 267.068 343.616 270.56 343.616 270.56C343.616 270.56 321.487 275.99 326.263 267.086C331.039 258.182 342.338 259.682 342.338 259.682C342.338 259.682 360.591 259.651 362.541 257.831C364.491 256.01 379.203 252.105 375.87 244.059C372.538 236.013 375.525 233.403 375.525 233.403Z" fill="#FFC1C8"/>
<path opacity="0.1" d="M339.808 286.825C339.808 286.825 311.478 311.364 314.298 311.364C317.118 311.364 339.808 286.825 339.808 286.825Z" fill="black"/>
<path opacity="0.1" d="M358.703 296.814C358.703 296.814 349.7 298.98 351.44 300.288C353.18 301.596 358.703 296.814 358.703 296.814Z" fill="black"/>
<path opacity="0.1" d="M326.954 237.308C326.954 237.308 338.191 238.314 336.211 241.831C334.23 245.348 326.954 237.308 326.954 237.308Z" fill="black"/>
<path opacity="0.1" d="M319.95 342.777C319.95 342.777 318.426 347.195 319.95 349.564C321.475 351.933 319.95 357.585 319.95 357.585V377.33C319.95 377.33 319.741 391.664 324.943 396.655L319.95 342.777Z" fill="black"/>
<path opacity="0.1" d="M305.073 404.307C305.073 404.307 308.109 408.755 308.547 410.384C308.985 412.013 305.073 404.307 305.073 404.307Z" fill="black"/>
<path opacity="0.1" d="M305.832 395.403C305.832 395.403 312.891 394.101 313.977 394.86C315.063 395.619 305.832 395.403 305.832 395.403Z" fill="black"/>
<path opacity="0.1" d="M303.771 422.003C303.771 422.003 301.703 422.219 305.832 424.471C309.96 426.723 317.994 429.574 318.099 428.599C318.204 427.624 303.771 422.003 303.771 422.003Z" fill="black"/>
<path opacity="0.1" d="M333.989 400.395C334.717 400.395 343.807 399.852 343.282 401.265C342.758 402.678 333.989 400.395 333.989 400.395Z" fill="black"/>
<path opacity="0.1" d="M346.337 387.69C346.337 387.69 348.398 384.111 349.157 385.629C349.916 387.147 346.337 387.69 346.337 387.69Z" fill="black"/>
<path opacity="0.1" d="M339.808 186.058C339.811 188.723 339.442 191.375 338.71 193.938C337.513 195.024 335.445 195.036 333.971 194.228C332.243 193.277 331.113 191.55 329.99 189.908C328.867 188.267 327.59 186.626 325.751 185.922C323.425 185.046 320.771 185.922 318.747 187.379C316.723 188.835 315.106 190.76 313.193 192.315C311.28 193.87 308.843 195.128 306.406 194.746C304.832 194.505 303.437 193.617 302.086 192.759C300.235 191.593 298.248 189.779 296.218 188.995C294.187 188.212 292.515 189.612 290.584 189.612C289.047 190.168 287.375 191.432 287.683 193.031C287.849 193.623 288.116 194.183 288.473 194.684C289.093 195.906 289.338 197.283 289.177 198.644C289.015 200.004 288.455 201.287 287.566 202.329C285.008 198.632 283.356 194.384 282.743 189.93C282.13 185.477 282.573 180.941 284.036 176.69C285.5 172.439 287.943 168.592 291.168 165.459C294.393 162.326 298.31 159.996 302.602 158.656C306.894 157.317 311.441 157.005 315.876 157.747C320.31 158.489 324.508 160.264 328.13 162.927C331.753 165.591 334.697 169.069 336.727 173.081C338.757 177.092 339.814 181.525 339.814 186.021L339.808 186.058Z" fill="black"/>
<path d="M290.577 188.779C289.041 189.335 287.369 190.599 287.671 192.204C287.842 192.793 288.112 193.35 288.467 193.851C290.269 197.066 288.745 201.681 285.382 203.174C284.855 203.449 284.252 203.544 283.666 203.446C283.201 203.302 282.778 203.048 282.432 202.705C280.623 201.089 279.376 198.939 278.871 196.566C278.341 194.098 278.668 191.482 278.396 188.946C278.125 186.41 277.255 183.911 276.952 181.356C276.738 180.094 276.873 178.797 277.341 177.605C277.748 176.818 278.272 176.099 278.896 175.47C280.63 173.539 282.438 171.564 283.308 169.115C284.684 165.215 283.685 160.248 286.696 157.391C288.091 156.083 290.041 155.596 291.768 154.769C293.395 153.905 294.953 152.917 296.427 151.813C302.012 147.975 308.8 145.026 315.44 146.383C318.093 147.026 320.633 148.066 322.974 149.468C327.323 151.866 331.453 154.641 335.316 157.761C336.986 158.997 338.445 160.495 339.635 162.198C340.522 163.656 341.16 165.251 341.524 166.918C342.41 170.555 342.532 174.337 341.882 178.024C341.265 181.64 339.864 185.151 339.808 188.822C339.808 190.056 339.907 191.389 339.271 192.451C338.253 194.141 335.729 194.302 334.001 193.364C332.274 192.426 331.144 190.686 330.027 189.045C328.911 187.403 327.627 185.762 325.788 185.065C323.462 184.182 320.808 185.065 318.784 186.515C316.76 187.965 315.15 189.896 313.231 191.451C311.311 193.006 308.911 194.265 306.443 193.882C304.869 193.641 303.474 192.759 302.123 191.901C300.272 190.729 298.285 188.915 296.261 188.138C294.237 187.36 292.503 188.779 290.577 188.779Z" fill="#794F6A"/>
<path d="M356.432 233.403C356.432 233.403 324.511 262.933 331.021 277.699C337.531 292.464 366.195 266.407 366.195 266.407L376.414 242.763L356.432 233.403Z" fill="#F8BDC5"/>
<g opacity="0.1">
<path d="M285.369 201.422C284.844 201.697 284.244 201.792 283.66 201.694C283.193 201.551 282.769 201.294 282.426 200.947C280.617 199.332 279.368 197.184 278.859 194.814C278.335 192.315 278.662 189.723 278.39 187.187C278.119 184.651 277.242 182.159 276.946 179.598C276.946 179.474 276.946 179.345 276.915 179.215C276.848 179.922 276.859 180.634 276.946 181.338C277.242 183.892 278.119 186.36 278.39 188.927C278.662 191.494 278.335 194.055 278.859 196.548C279.366 198.921 280.615 201.071 282.426 202.687C282.771 203.03 283.195 203.284 283.66 203.427C284.244 203.526 284.844 203.43 285.369 203.156C288.023 201.977 289.522 198.874 289.171 196.035C289.042 197.181 288.626 198.275 287.961 199.217C287.297 200.158 286.405 200.917 285.369 201.422Z" fill="black"/>
<path d="M341.838 176.278C341.221 179.894 339.821 183.405 339.771 187.076C339.771 188.31 339.87 189.643 339.228 190.704C338.216 192.395 335.692 192.555 333.964 191.618C332.237 190.68 331.107 188.946 329.984 187.298C328.861 185.651 327.59 184.016 325.745 183.319C323.425 182.442 320.771 183.319 318.747 184.775C316.723 186.231 315.106 188.15 313.194 189.711C311.281 191.272 308.843 192.525 306.406 192.148C304.832 191.901 303.437 191.019 302.086 190.161C300.235 188.989 298.248 187.181 296.224 186.397C294.2 185.614 292.521 187.015 290.59 187.015C289.053 187.576 287.381 188.835 287.677 190.445C287.715 190.619 287.771 190.789 287.844 190.951C288.448 189.898 289.43 189.113 290.59 188.755C292.515 188.755 294.218 187.372 296.224 188.138C298.229 188.903 300.253 190.729 302.086 191.901C303.425 192.759 304.82 193.641 306.406 193.882C308.874 194.265 311.293 193.024 313.194 191.451C315.094 189.878 316.729 187.934 318.747 186.515C320.765 185.096 323.425 184.182 325.745 185.065C327.596 185.762 328.867 187.422 329.984 189.045C331.101 190.667 332.237 192.389 333.964 193.364C335.692 194.339 338.216 194.141 339.228 192.451C339.845 191.389 339.753 190.063 339.771 188.822C339.821 185.151 341.203 181.64 341.838 178.024C342.164 176.167 342.296 174.282 342.233 172.397C342.194 173.699 342.062 174.996 341.838 176.278Z" fill="black"/>
</g>
<path opacity="0.1" d="M318.21 83.1258C318.21 83.1258 306.486 104.407 322.53 115.267C338.574 126.126 340.123 125.04 340.123 125.04C340.123 125.04 339.901 127.644 340.123 128.298C340.345 128.952 344.443 130.464 344.443 130.464C344.443 130.464 349.435 138.485 356.599 141.978C363.763 145.47 365.072 153.701 365.072 153.701C365.072 153.701 365.072 156.527 368.774 159.131C372.477 161.735 375.327 169.337 375.327 169.337V176.291C375.327 177.377 376.629 180.61 373.809 180.955C370.989 181.301 373.371 187.798 373.371 187.798C373.371 187.798 370.335 191.5 370.983 193.228C371.631 194.956 369.681 198.436 369.681 198.436C369.681 198.436 367.293 201.91 367.509 202.564C367.725 203.218 364.905 205.606 365.553 207.123C366.201 208.641 362.301 210.597 362.949 212.337C363.597 214.077 360.172 214.941 360.172 214.941L350.786 236.66C350.786 236.66 370.533 240.98 375.63 251.858L400.523 206.253C400.523 206.253 414.42 172.163 414.858 169.991C415.296 167.819 411.815 160.001 411.815 160.001L394.877 129.15L369.465 93.3191C369.465 93.3191 349.268 50.337 318.21 83.1258Z" fill="black"/>
<path opacity="0.1" d="M343.282 92.1035C343.282 92.1035 312.774 102.809 328.843 113.669C344.911 124.528 346.436 123.436 346.436 123.436C346.436 123.436 346.22 126.046 346.436 126.694C346.652 127.342 350.755 128.866 350.755 128.866C350.755 128.866 355.754 136.887 362.918 140.38C370.082 143.872 371.39 152.103 371.39 152.103C371.39 152.103 371.39 154.929 375.093 157.533C378.795 160.137 381.609 167.739 381.609 167.739V174.686C381.609 175.772 382.911 179.006 380.085 179.357C377.259 179.709 379.653 186.2 379.653 186.2C379.653 186.2 376.611 189.902 377.265 191.624C377.919 193.345 375.963 196.838 375.963 196.838C375.963 196.838 373.575 200.311 373.791 200.966C374.007 201.62 371.181 204.007 371.835 205.525C372.489 207.043 368.577 208.999 369.231 210.739C369.885 212.479 366.448 213.343 366.448 213.343L357.068 235.056C357.068 235.056 373.334 235.895 378.468 246.78L406.799 204.68C406.799 204.68 420.701 170.589 421.133 168.417C421.565 166.245 418.103 158.403 418.103 158.403L401.165 127.552L362.523 105.265C362.523 105.265 374.34 59.3086 343.282 92.1035Z" fill="black"/>
<path d="M319.95 83.1258C319.95 83.1258 308.226 104.407 324.27 115.267C340.314 126.126 341.863 125.04 341.863 125.04C341.863 125.04 341.647 127.644 341.863 128.298C342.079 128.952 346.183 130.464 346.183 130.464C346.183 130.464 351.181 138.485 358.345 141.978C365.51 145.47 366.818 153.701 366.818 153.701C366.818 153.701 366.818 156.527 370.52 159.131C374.223 161.735 377.068 169.337 377.068 169.337V176.291C377.068 177.377 378.37 180.61 375.543 180.955C372.717 181.301 375.111 187.798 375.111 187.798C375.111 187.798 372.069 191.5 372.723 193.228C373.377 194.956 371.421 198.436 371.421 198.436C371.421 198.436 369.033 201.91 369.249 202.564C369.465 203.218 366.639 205.606 367.293 207.123C367.947 208.641 364.035 210.597 364.689 212.337C365.343 214.077 361.906 214.941 361.906 214.941L352.526 236.66C352.526 236.66 372.236 240.98 377.364 251.858L402.257 206.253C402.257 206.253 416.16 172.163 416.592 169.991C417.024 167.819 413.549 160.001 413.549 160.001L396.611 129.15L371.205 93.3314C371.205 93.3314 351.002 50.337 319.95 83.1258Z" fill="#82ACAA"/>
<g opacity="0.1">
<path d="M191.678 93.8127C191.45 91.1158 190.869 88.4606 189.95 85.9147C189.055 83.4466 187.833 81.0156 187.543 78.3932C187.543 78.313 187.543 78.2389 187.543 78.1587C187.479 78.8153 187.479 79.4766 187.543 80.1332C187.833 82.7556 189.055 85.1681 189.95 87.6548C190.869 90.1984 191.45 92.8517 191.678 95.5465C191.764 96.5585 191.801 97.5827 191.814 98.6317C191.832 96.9965 191.814 95.3984 191.678 93.8127Z" fill="black"/>
<path d="M212.918 120.851C211.591 123.763 207.561 124.226 204.476 123.368C201.842 122.613 199.425 121.244 197.423 119.374C195.421 117.503 193.892 115.184 192.961 112.607C192.104 109.956 191.687 107.181 191.727 104.395C191.69 107.794 191.82 111.151 192.961 114.341C193.892 116.919 195.421 119.239 197.423 121.111C199.424 122.982 201.842 124.352 204.476 125.108C207.561 125.96 211.591 125.503 212.918 122.585C213.479 121.351 213.424 119.919 213.399 118.512C213.388 119.315 213.224 120.109 212.918 120.851Z" fill="black"/>
<path d="M272.873 80.2875C272.608 82.2619 271.824 84.4832 269.942 85.1435C268.845 85.4499 267.674 85.34 266.653 84.835C263.568 83.4898 260.822 80.2443 257.527 81.0279C254.836 81.6449 253.546 84.6869 252.837 87.3648C252.322 89.0568 252.099 90.8241 252.176 92.591C252.294 91.4098 252.515 90.2413 252.837 89.0986C253.546 86.4269 254.836 83.4035 257.527 82.7617C260.822 81.9843 263.543 85.2298 266.653 86.5688C267.672 87.0782 268.845 87.1904 269.942 86.8835C271.824 86.2233 272.608 84.002 272.873 82.0213C273.043 80.7598 273.105 79.4862 273.058 78.2143C273.028 78.9053 272.966 79.6026 272.873 80.2875Z" fill="black"/>
<path d="M255.873 105.425C254.022 106.764 251.51 105.339 249.48 104.271C247.308 103.13 244.543 102.42 242.476 103.734C241.766 104.179 241.192 104.82 240.501 105.296C239.079 106.175 237.392 106.525 235.737 106.283C231.807 105.882 230.338 103.395 227.345 101.47C225.148 100.057 220.557 99.4523 219.249 102.352C218.935 103.206 218.848 104.127 218.996 105.024C219.037 104.703 219.122 104.39 219.249 104.092C220.563 101.186 225.148 101.791 227.345 103.21C230.338 105.135 231.807 107.622 235.737 108.023C237.393 108.26 239.079 107.908 240.501 107.029C241.192 106.56 241.766 105.919 242.476 105.474C244.562 104.179 247.308 104.857 249.48 106.011C251.51 107.073 254.009 108.479 255.873 107.159C256.959 106.382 257.218 104.999 256.977 103.636C256.851 104.351 256.456 104.991 255.873 105.425Z" fill="black"/>
<path d="M218.836 108.424C217.99 110.361 215.392 110.892 214.195 112.638C213.3 113.934 213.374 115.551 213.405 117.173C213.394 116.185 213.668 115.214 214.195 114.378C215.392 112.632 217.99 112.095 218.836 110.158C219.131 109.315 219.212 108.411 219.07 107.529C219.032 107.837 218.953 108.137 218.836 108.424Z" fill="black"/>
</g>
</g>
<defs>
<linearGradient id="paint0_linear_89_52" x1="318.34" y1="484.569" x2="318.34" y2="44.7529" gradientUnits="userSpaceOnUse">
<stop stop-color="#808080" stop-opacity="0.25"/>
<stop offset="0.54" stop-color="#808080" stop-opacity="0.12"/>
<stop offset="1" stop-color="#808080" stop-opacity="0.1"/>
</linearGradient>
<clipPath id="clip0_89_52">
<rect width="677" height="488" fill="white"/>
</clipPath>
</defs>
</svg>
